<svg xmlns="http://www.w3.org/2000/svg" version="1.1" viewBox="-5.0 -10.0 80.0 78.0">
 <path d="m50 10.512c-21.77 0-39.48 17.711-39.48 39.488 0 21.781 17.711 39.488 39.48 39.488s39.488-17.711 39.488-39.488c0-21.781-17.719-39.488-39.488-39.488zm14.102 59.477c-12.109 2.6406-22.48-7.8008-22.48-7.8008-11.723-10.176-11.93-20.926-11.93-20.926-0.58203-9.2617 5.6875-11.242 8.6484-11.66 0.87109-0.12109 1.7305 0.28906 2.1797 1.0586l4.6602 8c0.85156 1.4609 0.48047 3.3203-0.87109 4.3398l-1.5508 1.1797c-1.1484 0.87109-1.5 2.4414-0.85156 3.7188 3.1016 6.1211 7.8711 9.4102 10.73 10.93 1.3281 0.71094 2.9688 0.28906 3.8203-0.94922l0.96094-1.3984c0.96875-1.4219 2.8711-1.8711 4.3711-1.0312l7.1289 3.9492c0.46875 0.26172 0.82031 0.67969 1 1.1797 2.3711 6.6133-5.8164 9.4102-5.8164 9.4102z" fill="#C49B52" transform="translate(-15, -21)" />
</svg>